<svg id="visual" viewBox="0 0 900 675" width="900" height="675" xmlns="http://www.w3.org/2000/svg" xmlns:xlink="http://www.w3.org/1999/xlink" version="1.1"><rect x="0" y="0" width="900" height="675" fill="#F9E600"></rect><defs><linearGradient id="grad1_0" x1="25%" y1="100%" x2="100%" y2="0%"><stop offset="23.333333333333336%" stop-color="#f9e600" stop-opacity="1"></stop><stop offset="76.66666666666666%" stop-color="#f9e600" stop-opacity="1"></stop></linearGradient></defs><defs><linearGradient id="grad2_0" x1="0%" y1="100%" x2="75%" y2="0%"><stop offset="23.333333333333336%" stop-color="#f9e600" stop-opacity="1"></stop><stop offset="76.66666666666666%" stop-color="#f9e600" stop-opacity="1"></stop></linearGradient></defs><g transform="translate(900, 675)"><path d="M-309.4 0C-290.2 -47.4 -271.1 -94.8 -247.7 -143C-224.3 -191.2 -196.7 -240.1 -154.7 -267.9C-112.7 -295.8 -56.4 -302.6 0 -309.4L0 0Z" fill="#161513"></path></g><g transform="translate(0, 0)"><path d="M309.4 0C297.2 51.4 284.9 102.8 260.7 150.5C236.4 198.2 200.1 242.1 154.7 267.9C109.2 293.8 54.6 301.6 0 309.4L0 0Z" fill="#161513"></path></g></svg>